<mxfile host="app.diagrams.net" agent="Mozilla/5.0 (Windows NT 10.0; Win64; x64) AppleWebKit/537.36 (KHTML, like Gecko) Chrome/136.0.0.0 Safari/537.36" version="27.0.3">
  <diagram name="Page-1" id="I6ju748nZRxkMrSQi35l">
    <mxGraphModel dx="2003" dy="1265" grid="0" gridSize="10" guides="1" tooltips="1" connect="1" arrows="1" fold="1" page="0" pageScale="1" pageWidth="850" pageHeight="1100" math="0" shadow="0">
      <root>
        <mxCell id="0" />
        <mxCell id="1" parent="0" />
        <mxCell id="T6p4OpV2aNtOesqytf9U-104" value="" style="endArrow=none;html=1;rounded=0;fontSize=16;fontStyle=1;strokeWidth=3;" parent="1" edge="1">
          <mxGeometry width="50" height="50" relative="1" as="geometry">
            <mxPoint x="700" y="2750" as="sourcePoint" />
            <mxPoint x="1170" y="2750" as="targetPoint" />
            <Array as="points">
              <mxPoint x="900" y="2750" />
            </Array>
          </mxGeometry>
        </mxCell>
        <mxCell id="T6p4OpV2aNtOesqytf9U-105" value="" style="endArrow=none;html=1;rounded=0;entryX=0.5;entryY=1;entryDx=0;entryDy=0;fontSize=16;fontStyle=1;strokeWidth=3;" parent="1" target="T6p4OpV2aNtOesqytf9U-45" edge="1">
          <mxGeometry width="50" height="50" relative="1" as="geometry">
            <mxPoint x="898" y="2752" as="sourcePoint" />
            <mxPoint x="921" y="2706" as="targetPoint" />
          </mxGeometry>
        </mxCell>
        <mxCell id="T6p4OpV2aNtOesqytf9U-110" value="Yes" style="text;html=1;align=center;verticalAlign=middle;resizable=0;points=[];autosize=1;strokeColor=none;fillColor=none;fontSize=16;fontStyle=1;strokeWidth=3;" parent="1" vertex="1">
          <mxGeometry x="1730.5" y="445.5" width="44" height="31" as="geometry" />
        </mxCell>
        <mxCell id="T6p4OpV2aNtOesqytf9U-111" value="No" style="text;html=1;align=center;verticalAlign=middle;resizable=0;points=[];autosize=1;strokeColor=none;fillColor=none;fontSize=16;fontStyle=1;strokeWidth=3;" parent="1" vertex="1">
          <mxGeometry x="1929.5" y="442.5" width="38" height="31" as="geometry" />
        </mxCell>
        <mxCell id="T6p4OpV2aNtOesqytf9U-112" value="Yes" style="text;html=1;align=center;verticalAlign=middle;resizable=0;points=[];autosize=1;strokeColor=none;fillColor=none;fontSize=16;fontStyle=1;strokeWidth=3;" parent="1" vertex="1">
          <mxGeometry x="624.5" y="678.5" width="44" height="31" as="geometry" />
        </mxCell>
        <mxCell id="RjojUtqnH3HKZvirAnZO-5" value="&lt;font&gt;Start&amp;nbsp;&lt;/font&gt;" style="text;html=1;align=center;verticalAlign=middle;resizable=0;points=[];autosize=1;strokeColor=none;fillColor=none;fontSize=16;fontStyle=1;strokeWidth=3;" parent="1" vertex="1">
          <mxGeometry x="98" y="54" width="56" height="31" as="geometry" />
        </mxCell>
        <mxCell id="2CUqEQ3qI_cIVyu0z2fX-7" value="" style="endArrow=classic;html=1;rounded=0;exitX=0.457;exitY=0.957;exitDx=0;exitDy=0;exitPerimeter=0;edgeStyle=orthogonalEdgeStyle;fontSize=16;fontStyle=1;strokeWidth=3;" parent="1" edge="1">
          <mxGeometry width="50" height="50" relative="1" as="geometry">
            <mxPoint x="1840.0549999999998" y="1804.85" as="sourcePoint" />
            <mxPoint x="113" y="1833" as="targetPoint" />
            <Array as="points">
              <mxPoint x="1840" y="1833" />
            </Array>
          </mxGeometry>
        </mxCell>
        <mxCell id="-p7hXUmtslS0CAoDAd7b-1" value="" style="swimlane;startSize=0;strokeWidth=3;fontSize=16;fontStyle=1" parent="1" vertex="1">
          <mxGeometry x="-15" y="-47" width="2143" height="3053" as="geometry" />
        </mxCell>
        <mxCell id="T6p4OpV2aNtOesqytf9U-2" style="edgeStyle=none;rounded=0;html=1;labelBackgroundColor=none;startArrow=none;startFill=0;startSize=5;endArrow=classicThin;endFill=1;endSize=5;jettySize=auto;orthogonalLoop=1;strokeWidth=1;fontFamily=Verdana;fontSize=12" parent="1" edge="1">
          <mxGeometry relative="1" as="geometry">
            <mxPoint x="220" y="376.4776119402985" as="sourcePoint" />
          </mxGeometry>
        </mxCell>
        <mxCell id="T6p4OpV2aNtOesqytf9U-3" value="" style="endArrow=classic;html=1;rounded=0;exitX=0.443;exitY=1.02;exitDx=0;exitDy=0;exitPerimeter=0;edgeStyle=orthogonalEdgeStyle;fontSize=16;fontStyle=1;strokeWidth=3;entryX=0.5;entryY=0;entryDx=0;entryDy=0;" parent="1" target="T6p4OpV2aNtOesqytf9U-10" edge="1">
          <mxGeometry width="50" height="50" relative="1" as="geometry">
            <mxPoint x="1720.9449999999997" y="549" as="sourcePoint" />
            <mxPoint x="650" y="588" as="targetPoint" />
            <Array as="points">
              <mxPoint x="1721" y="568" />
              <mxPoint x="618" y="568" />
            </Array>
          </mxGeometry>
        </mxCell>
        <mxCell id="T6p4OpV2aNtOesqytf9U-66" value="" style="endArrow=classic;html=1;rounded=0;exitX=1;exitY=0.25;exitDx=0;exitDy=0;entryX=0.361;entryY=-0.08;entryDx=0;entryDy=0;entryPerimeter=0;edgeStyle=orthogonalEdgeStyle;fontSize=16;fontStyle=1;strokeWidth=3;" parent="1" source="T6p4OpV2aNtOesqytf9U-9" edge="1">
          <mxGeometry width="50" height="50" relative="1" as="geometry">
            <mxPoint x="195" y="191.5" as="sourcePoint" />
            <mxPoint x="1836.5149999999999" y="235" as="targetPoint" />
            <Array as="points">
              <mxPoint x="1837" y="191" />
            </Array>
          </mxGeometry>
        </mxCell>
        <mxCell id="T6p4OpV2aNtOesqytf9U-68" value="" style="endArrow=classic;html=1;rounded=0;exitX=0.5;exitY=1;exitDx=0;exitDy=0;edgeStyle=orthogonalEdgeStyle;fontSize=16;fontStyle=1;strokeWidth=3;" parent="1" edge="1">
          <mxGeometry width="50" height="50" relative="1" as="geometry">
            <mxPoint x="529" y="1241" as="sourcePoint" />
            <mxPoint x="1788" y="1406" as="targetPoint" />
            <Array as="points">
              <mxPoint x="529" y="1406" />
            </Array>
          </mxGeometry>
        </mxCell>
        <mxCell id="T6p4OpV2aNtOesqytf9U-69" value="" style="endArrow=classic;html=1;rounded=0;exitX=0.5;exitY=1;exitDx=0;exitDy=0;entryX=0;entryY=0.5;entryDx=0;entryDy=0;edgeStyle=orthogonalEdgeStyle;fontSize=16;fontStyle=1;strokeWidth=3;" parent="1" source="T6p4OpV2aNtOesqytf9U-32" target="T6p4OpV2aNtOesqytf9U-93" edge="1">
          <mxGeometry width="50" height="50" relative="1" as="geometry">
            <mxPoint x="720" y="1272" as="sourcePoint" />
            <mxPoint x="770" y="1222" as="targetPoint" />
          </mxGeometry>
        </mxCell>
        <mxCell id="T6p4OpV2aNtOesqytf9U-70" value="" style="endArrow=classic;html=1;rounded=0;exitX=0.4;exitY=0.993;exitDx=0;exitDy=0;exitPerimeter=0;edgeStyle=orthogonalEdgeStyle;entryX=0.5;entryY=0;entryDx=0;entryDy=0;fontSize=16;fontStyle=1;strokeWidth=3;" parent="1" source="T6p4OpV2aNtOesqytf9U-14" target="T6p4OpV2aNtOesqytf9U-94" edge="1">
          <mxGeometry width="50" height="50" relative="1" as="geometry">
            <mxPoint x="720" y="1632" as="sourcePoint" />
            <mxPoint x="1880" y="1922" as="targetPoint" />
            <Array as="points">
              <mxPoint x="843" y="1076" />
              <mxPoint x="860" y="1076" />
              <mxPoint x="860" y="1945" />
              <mxPoint x="1845" y="1945" />
            </Array>
          </mxGeometry>
        </mxCell>
        <mxCell id="T6p4OpV2aNtOesqytf9U-71" value="" style="endArrow=classic;html=1;rounded=0;entryX=0.424;entryY=-0.063;entryDx=0;entryDy=0;entryPerimeter=0;exitX=0.5;exitY=1;exitDx=0;exitDy=0;edgeStyle=orthogonalEdgeStyle;fontSize=16;fontStyle=1;strokeWidth=3;" parent="1" source="T6p4OpV2aNtOesqytf9U-95" target="T6p4OpV2aNtOesqytf9U-40" edge="1">
          <mxGeometry width="50" height="50" relative="1" as="geometry">
            <mxPoint x="1400" y="2112" as="sourcePoint" />
            <mxPoint x="1070" y="2052" as="targetPoint" />
          </mxGeometry>
        </mxCell>
        <mxCell id="T6p4OpV2aNtOesqytf9U-72" value="" style="endArrow=classic;html=1;rounded=0;exitX=0.5;exitY=1;exitDx=0;exitDy=0;entryX=0;entryY=0.5;entryDx=0;entryDy=0;edgeStyle=orthogonalEdgeStyle;fontSize=16;fontStyle=1;strokeWidth=3;" parent="1" source="T6p4OpV2aNtOesqytf9U-15" target="T6p4OpV2aNtOesqytf9U-96" edge="1">
          <mxGeometry width="50" height="50" relative="1" as="geometry">
            <mxPoint x="790" y="1302" as="sourcePoint" />
            <mxPoint x="1250" y="1702" as="targetPoint" />
          </mxGeometry>
        </mxCell>
        <mxCell id="T6p4OpV2aNtOesqytf9U-73" value="" style="endArrow=classic;html=1;rounded=0;entryX=0.423;entryY=0.064;entryDx=0;entryDy=0;entryPerimeter=0;edgeStyle=orthogonalEdgeStyle;exitX=0.5;exitY=1;exitDx=0;exitDy=0;fontSize=16;fontStyle=1;strokeWidth=3;" parent="1" edge="1">
          <mxGeometry width="50" height="50" relative="1" as="geometry">
            <mxPoint x="1847" y="1728" as="sourcePoint" />
            <mxPoint x="756.415" y="1774.5599999999995" as="targetPoint" />
            <Array as="points">
              <mxPoint x="1842" y="1722" />
              <mxPoint x="1842" y="1742" />
              <mxPoint x="756" y="1742" />
            </Array>
          </mxGeometry>
        </mxCell>
        <mxCell id="T6p4OpV2aNtOesqytf9U-4" value="User Perspective&amp;nbsp;" style="swimlane;html=1;startSize=20;fontSize=16;fontStyle=1;strokeWidth=3;" parent="1" vertex="1">
          <mxGeometry x="40" y="18" width="1560" height="2921" as="geometry" />
        </mxCell>
        <mxCell id="T6p4OpV2aNtOesqytf9U-5" style="edgeStyle=none;rounded=0;html=1;labelBackgroundColor=none;startArrow=none;startFill=0;startSize=5;endArrow=classicThin;endFill=1;endSize=5;jettySize=auto;orthogonalLoop=1;strokeWidth=1;fontFamily=Verdana;fontSize=12" parent="T6p4OpV2aNtOesqytf9U-4" edge="1">
          <mxGeometry relative="1" as="geometry">
            <mxPoint x="166.25" y="280" as="targetPoint" />
          </mxGeometry>
        </mxCell>
        <mxCell id="T6p4OpV2aNtOesqytf9U-6" style="edgeStyle=none;rounded=0;html=1;labelBackgroundColor=none;startArrow=none;startFill=0;startSize=5;endArrow=classicThin;endFill=1;endSize=5;jettySize=auto;orthogonalLoop=1;strokeWidth=1;fontFamily=Verdana;fontSize=12" parent="T6p4OpV2aNtOesqytf9U-4" edge="1">
          <mxGeometry relative="1" as="geometry">
            <mxPoint x="162.72727272727275" y="310" as="sourcePoint" />
          </mxGeometry>
        </mxCell>
        <mxCell id="T6p4OpV2aNtOesqytf9U-7" value="" style="ellipse;html=1;shape=startState;fillColor=#000000;strokeColor=#ff0000;fontSize=16;fontStyle=1;strokeWidth=3;" parent="T6p4OpV2aNtOesqytf9U-4" vertex="1">
          <mxGeometry x="70" y="60" width="30" height="30" as="geometry" />
        </mxCell>
        <mxCell id="T6p4OpV2aNtOesqytf9U-8" value="" style="edgeStyle=orthogonalEdgeStyle;html=1;verticalAlign=bottom;endArrow=open;endSize=8;strokeColor=#ff0000;rounded=0;fontSize=16;fontStyle=1;strokeWidth=3;" parent="T6p4OpV2aNtOesqytf9U-4" source="T6p4OpV2aNtOesqytf9U-7" edge="1">
          <mxGeometry relative="1" as="geometry">
            <mxPoint x="85" y="150" as="targetPoint" />
          </mxGeometry>
        </mxCell>
        <mxCell id="T6p4OpV2aNtOesqytf9U-9" value="Enter Credentials" style="rounded=1;whiteSpace=wrap;html=1;fontSize=16;fontStyle=1;strokeWidth=3;" parent="T6p4OpV2aNtOesqytf9U-4" vertex="1">
          <mxGeometry x="30" y="160" width="115" height="50" as="geometry" />
        </mxCell>
        <mxCell id="T6p4OpV2aNtOesqytf9U-10" value="Is User?" style="rhombus;whiteSpace=wrap;html=1;fontSize=16;fontStyle=1;strokeWidth=3;" parent="T6p4OpV2aNtOesqytf9U-4" vertex="1">
          <mxGeometry x="537.5" y="595" width="80" height="70" as="geometry" />
        </mxCell>
        <mxCell id="T6p4OpV2aNtOesqytf9U-11" value="Home Page" style="rounded=1;whiteSpace=wrap;html=1;fontSize=16;fontStyle=1;strokeWidth=3;" parent="T6p4OpV2aNtOesqytf9U-4" vertex="1">
          <mxGeometry x="527.5" y="762" width="115" height="50" as="geometry" />
        </mxCell>
        <mxCell id="T6p4OpV2aNtOesqytf9U-13" value="Menu" style="rhombus;whiteSpace=wrap;html=1;fontSize=16;fontStyle=1;strokeWidth=3;" parent="T6p4OpV2aNtOesqytf9U-4" vertex="1">
          <mxGeometry x="545" y="900" width="80" height="70" as="geometry" />
        </mxCell>
        <mxCell id="T6p4OpV2aNtOesqytf9U-14" value="Select Study Progress" style="rounded=1;whiteSpace=wrap;html=1;fontSize=16;fontStyle=1;strokeWidth=3;" parent="T6p4OpV2aNtOesqytf9U-4" vertex="1">
          <mxGeometry x="762" y="1040" width="102" height="42" as="geometry" />
        </mxCell>
        <mxCell id="T6p4OpV2aNtOesqytf9U-15" value="Select Quiz" style="rounded=1;whiteSpace=wrap;html=1;fontSize=16;fontStyle=1;strokeWidth=3;" parent="T6p4OpV2aNtOesqytf9U-4" vertex="1">
          <mxGeometry x="655" y="1040" width="101" height="38" as="geometry" />
        </mxCell>
        <mxCell id="T6p4OpV2aNtOesqytf9U-16" value="Select Discussion" style="rounded=1;whiteSpace=wrap;html=1;fontSize=16;fontStyle=1;strokeWidth=3;" parent="T6p4OpV2aNtOesqytf9U-4" vertex="1">
          <mxGeometry x="545" y="1040" width="105" height="40" as="geometry" />
        </mxCell>
        <mxCell id="T6p4OpV2aNtOesqytf9U-17" value="Select Note Sharing" style="rounded=1;whiteSpace=wrap;html=1;fontSize=16;fontStyle=1;strokeWidth=3;" parent="T6p4OpV2aNtOesqytf9U-4" vertex="1">
          <mxGeometry x="302.75" y="992" width="169.5" height="40" as="geometry" />
        </mxCell>
        <mxCell id="T6p4OpV2aNtOesqytf9U-18" value="" style="endArrow=classic;html=1;rounded=0;exitX=0.5;exitY=1;exitDx=0;exitDy=0;entryX=0.39;entryY=-0.05;entryDx=0;entryDy=0;entryPerimeter=0;fontSize=16;fontStyle=1;strokeWidth=3;" parent="T6p4OpV2aNtOesqytf9U-4" source="T6p4OpV2aNtOesqytf9U-13" target="T6p4OpV2aNtOesqytf9U-16" edge="1">
          <mxGeometry width="50" height="50" relative="1" as="geometry">
            <mxPoint x="615" y="980" as="sourcePoint" />
            <mxPoint x="665" y="930" as="targetPoint" />
          </mxGeometry>
        </mxCell>
        <mxCell id="T6p4OpV2aNtOesqytf9U-19" value="" style="endArrow=classic;html=1;rounded=0;entryX=0.4;entryY=0;entryDx=0;entryDy=0;entryPerimeter=0;exitX=1;exitY=0.5;exitDx=0;exitDy=0;edgeStyle=orthogonalEdgeStyle;fontSize=16;fontStyle=1;strokeWidth=3;" parent="T6p4OpV2aNtOesqytf9U-4" source="T6p4OpV2aNtOesqytf9U-13" target="T6p4OpV2aNtOesqytf9U-15" edge="1">
          <mxGeometry width="50" height="50" relative="1" as="geometry">
            <mxPoint x="635" y="1010" as="sourcePoint" />
            <mxPoint x="685" y="960" as="targetPoint" />
          </mxGeometry>
        </mxCell>
        <mxCell id="T6p4OpV2aNtOesqytf9U-20" value="" style="endArrow=classic;html=1;rounded=0;entryX=0.589;entryY=0.025;entryDx=0;entryDy=0;entryPerimeter=0;edgeStyle=orthogonalEdgeStyle;exitX=0.818;exitY=0.697;exitDx=0;exitDy=0;exitPerimeter=0;fontSize=16;fontStyle=1;strokeWidth=3;" parent="T6p4OpV2aNtOesqytf9U-4" source="T6p4OpV2aNtOesqytf9U-13" edge="1">
          <mxGeometry width="50" height="50" relative="1" as="geometry">
            <mxPoint x="615" y="949" as="sourcePoint" />
            <mxPoint x="820.9549999999999" y="1040.02" as="targetPoint" />
          </mxGeometry>
        </mxCell>
        <mxCell id="T6p4OpV2aNtOesqytf9U-21" value="" style="endArrow=classic;html=1;rounded=0;entryX=0.443;entryY=-0.06;entryDx=0;entryDy=0;entryPerimeter=0;exitX=0.5;exitY=1;exitDx=0;exitDy=0;fontSize=16;fontStyle=1;strokeWidth=3;" parent="T6p4OpV2aNtOesqytf9U-4" source="T6p4OpV2aNtOesqytf9U-10" target="T6p4OpV2aNtOesqytf9U-11" edge="1">
          <mxGeometry width="50" height="50" relative="1" as="geometry">
            <mxPoint x="576" y="640" as="sourcePoint" />
            <mxPoint x="655" y="620" as="targetPoint" />
          </mxGeometry>
        </mxCell>
        <mxCell id="T6p4OpV2aNtOesqytf9U-23" value="" style="endArrow=classic;html=1;rounded=0;exitX=0.5;exitY=1;exitDx=0;exitDy=0;entryX=0.5;entryY=0;entryDx=0;entryDy=0;fontSize=16;fontStyle=1;strokeWidth=3;" parent="T6p4OpV2aNtOesqytf9U-4" source="T6p4OpV2aNtOesqytf9U-11" target="T6p4OpV2aNtOesqytf9U-13" edge="1">
          <mxGeometry width="50" height="50" relative="1" as="geometry">
            <mxPoint x="582.5" y="839.9999999999998" as="sourcePoint" />
            <mxPoint x="583" y="870" as="targetPoint" />
          </mxGeometry>
        </mxCell>
        <mxCell id="T6p4OpV2aNtOesqytf9U-24" value="" style="shape=line;html=1;strokeWidth=3;strokeColor=#ff0000;fontSize=16;fontStyle=1" parent="T6p4OpV2aNtOesqytf9U-4" vertex="1">
          <mxGeometry x="226" y="1142" width="197" height="10" as="geometry" />
        </mxCell>
        <mxCell id="T6p4OpV2aNtOesqytf9U-25" value="Upload Notes" style="rounded=1;whiteSpace=wrap;html=1;fontSize=16;fontStyle=1;strokeWidth=3;" parent="T6p4OpV2aNtOesqytf9U-4" vertex="1">
          <mxGeometry x="226" y="1190" width="90" height="40" as="geometry" />
        </mxCell>
        <mxCell id="T6p4OpV2aNtOesqytf9U-26" value="Share Notes" style="rounded=1;whiteSpace=wrap;html=1;fontSize=16;fontStyle=1;strokeWidth=3;" parent="T6p4OpV2aNtOesqytf9U-4" vertex="1">
          <mxGeometry x="331.5" y="1188" width="90" height="40" as="geometry" />
        </mxCell>
        <mxCell id="T6p4OpV2aNtOesqytf9U-27" value="Access Notes" style="rounded=1;whiteSpace=wrap;html=1;fontSize=16;fontStyle=1;strokeWidth=3;" parent="T6p4OpV2aNtOesqytf9U-4" vertex="1">
          <mxGeometry x="441" y="1188" width="90" height="40" as="geometry" />
        </mxCell>
        <mxCell id="T6p4OpV2aNtOesqytf9U-28" value="" style="endArrow=classic;html=1;rounded=0;exitX=0.177;exitY=1.033;exitDx=0;exitDy=0;exitPerimeter=0;fontSize=16;fontStyle=1;strokeWidth=3;" parent="T6p4OpV2aNtOesqytf9U-4" edge="1">
          <mxGeometry width="50" height="50" relative="1" as="geometry">
            <mxPoint x="269.1" y="1149.33" as="sourcePoint" />
            <mxPoint x="269" y="1187" as="targetPoint" />
          </mxGeometry>
        </mxCell>
        <mxCell id="T6p4OpV2aNtOesqytf9U-30" value="" style="endArrow=classic;html=1;rounded=0;entryX=0.415;entryY=-0.017;entryDx=0;entryDy=0;entryPerimeter=0;fontSize=16;fontStyle=1;strokeWidth=3;exitX=1;exitY=0.5;exitDx=0;exitDy=0;" parent="T6p4OpV2aNtOesqytf9U-4" edge="1">
          <mxGeometry width="50" height="50" relative="1" as="geometry">
            <mxPoint x="423" y="1094.5" as="sourcePoint" />
            <mxPoint x="483.0000000000001" y="1185.6599999999999" as="targetPoint" />
            <Array as="points">
              <mxPoint x="483" y="1095" />
            </Array>
          </mxGeometry>
        </mxCell>
        <mxCell id="T6p4OpV2aNtOesqytf9U-32" value="Participate in Discussion" style="rounded=1;whiteSpace=wrap;html=1;fontSize=16;fontStyle=1;strokeWidth=3;" parent="T6p4OpV2aNtOesqytf9U-4" vertex="1">
          <mxGeometry x="545" y="1140" width="105" height="40" as="geometry" />
        </mxCell>
        <mxCell id="T6p4OpV2aNtOesqytf9U-33" value="" style="endArrow=classic;html=1;rounded=0;entryX=0.5;entryY=0;entryDx=0;entryDy=0;fontSize=16;fontStyle=1;strokeWidth=3;" parent="T6p4OpV2aNtOesqytf9U-4" source="T6p4OpV2aNtOesqytf9U-16" target="T6p4OpV2aNtOesqytf9U-32" edge="1">
          <mxGeometry width="50" height="50" relative="1" as="geometry">
            <mxPoint x="640" y="1290" as="sourcePoint" />
            <mxPoint x="690" y="1240" as="targetPoint" />
          </mxGeometry>
        </mxCell>
        <mxCell id="T6p4OpV2aNtOesqytf9U-34" value="" style="endArrow=classic;html=1;rounded=0;fontSize=16;fontStyle=1;strokeWidth=3;exitX=0.878;exitY=0.445;exitDx=0;exitDy=0;exitPerimeter=0;" parent="T6p4OpV2aNtOesqytf9U-4" edge="1">
          <mxGeometry width="50" height="50" relative="1" as="geometry">
            <mxPoint x="321.9660000000001" y="1271.4500000000003" as="sourcePoint" />
            <mxPoint x="70" y="1300" as="targetPoint" />
            <Array as="points">
              <mxPoint x="322" y="1300" />
            </Array>
          </mxGeometry>
        </mxCell>
        <mxCell id="T6p4OpV2aNtOesqytf9U-35" value="" style="endArrow=classic;html=1;rounded=0;exitX=0.5;exitY=1;exitDx=0;exitDy=0;edgeStyle=orthogonalEdgeStyle;fontSize=16;fontStyle=1;strokeWidth=3;" parent="T6p4OpV2aNtOesqytf9U-4" source="T6p4OpV2aNtOesqytf9U-92" edge="1">
          <mxGeometry width="50" height="50" relative="1" as="geometry">
            <mxPoint x="850" y="1570" as="sourcePoint" />
            <mxPoint x="70" y="1540" as="targetPoint" />
            <Array as="points">
              <mxPoint x="1353" y="1540" />
              <mxPoint x="270" y="1540" />
            </Array>
          </mxGeometry>
        </mxCell>
        <mxCell id="T6p4OpV2aNtOesqytf9U-36" value="Attempt Quiz" style="rounded=1;whiteSpace=wrap;html=1;fontSize=16;fontStyle=1;strokeWidth=3;" parent="T6p4OpV2aNtOesqytf9U-4" vertex="1">
          <mxGeometry x="670" y="1756" width="105" height="40" as="geometry" />
        </mxCell>
        <mxCell id="T6p4OpV2aNtOesqytf9U-37" value="View Score" style="rounded=1;whiteSpace=wrap;html=1;fontSize=16;fontStyle=1;strokeWidth=3;" parent="T6p4OpV2aNtOesqytf9U-4" vertex="1">
          <mxGeometry x="670" y="1927" width="105" height="40" as="geometry" />
        </mxCell>
        <mxCell id="T6p4OpV2aNtOesqytf9U-38" value="" style="endArrow=classic;html=1;rounded=0;exitX=0.5;exitY=1;exitDx=0;exitDy=0;edgeStyle=orthogonalEdgeStyle;fontSize=16;fontStyle=1;strokeWidth=3;" parent="T6p4OpV2aNtOesqytf9U-4" source="T6p4OpV2aNtOesqytf9U-37" edge="1">
          <mxGeometry width="50" height="50" relative="1" as="geometry">
            <mxPoint x="680" y="2025" as="sourcePoint" />
            <mxPoint x="70" y="1975" as="targetPoint" />
            <Array as="points">
              <mxPoint x="723" y="1975" />
            </Array>
          </mxGeometry>
        </mxCell>
        <mxCell id="T6p4OpV2aNtOesqytf9U-39" value="" style="endArrow=classic;html=1;rounded=0;edgeStyle=orthogonalEdgeStyle;exitX=0.613;exitY=0.937;exitDx=0;exitDy=0;exitPerimeter=0;fontSize=16;fontStyle=1;strokeWidth=3;entryX=0.5;entryY=0;entryDx=0;entryDy=0;" parent="T6p4OpV2aNtOesqytf9U-4" edge="1">
          <mxGeometry width="50" height="50" relative="1" as="geometry">
            <mxPoint x="1806.995" y="1880.85" as="sourcePoint" />
            <mxPoint x="722.5" y="1927" as="targetPoint" />
            <Array as="points">
              <mxPoint x="1803" y="1881" />
              <mxPoint x="1803" y="1905" />
              <mxPoint x="722" y="1905" />
            </Array>
          </mxGeometry>
        </mxCell>
        <mxCell id="T6p4OpV2aNtOesqytf9U-40" value="Track Study Progress" style="rounded=1;whiteSpace=wrap;html=1;fontSize=16;fontStyle=1;strokeWidth=3;" parent="T6p4OpV2aNtOesqytf9U-4" vertex="1">
          <mxGeometry x="790" y="2150" width="115" height="50" as="geometry" />
        </mxCell>
        <mxCell id="T6p4OpV2aNtOesqytf9U-41" value="Admin Dashboard" style="rounded=1;whiteSpace=wrap;html=1;fontSize=16;fontStyle=1;strokeWidth=3;" parent="T6p4OpV2aNtOesqytf9U-4" vertex="1">
          <mxGeometry x="920" y="2230" width="115" height="50" as="geometry" />
        </mxCell>
        <mxCell id="T6p4OpV2aNtOesqytf9U-42" value="Menu" style="rhombus;whiteSpace=wrap;html=1;fontSize=16;fontStyle=1;strokeWidth=3;" parent="T6p4OpV2aNtOesqytf9U-4" vertex="1">
          <mxGeometry x="940" y="2350" width="77.5" height="70" as="geometry" />
        </mxCell>
        <mxCell id="T6p4OpV2aNtOesqytf9U-43" value="" style="edgeStyle=orthogonalEdgeStyle;rounded=0;orthogonalLoop=1;jettySize=auto;html=1;fontSize=16;fontStyle=1;strokeWidth=3;" parent="T6p4OpV2aNtOesqytf9U-4" source="T6p4OpV2aNtOesqytf9U-44" target="T6p4OpV2aNtOesqytf9U-45" edge="1">
          <mxGeometry relative="1" as="geometry" />
        </mxCell>
        <mxCell id="T6p4OpV2aNtOesqytf9U-44" value="Manage Users" style="rounded=1;whiteSpace=wrap;html=1;fontSize=16;fontStyle=1;strokeWidth=3;" parent="T6p4OpV2aNtOesqytf9U-4" vertex="1">
          <mxGeometry x="800" y="2470" width="115" height="60" as="geometry" />
        </mxCell>
        <mxCell id="T6p4OpV2aNtOesqytf9U-45" value="Add Delete Users&amp;nbsp;" style="rounded=1;whiteSpace=wrap;html=1;fontSize=16;fontStyle=1;strokeWidth=3;" parent="T6p4OpV2aNtOesqytf9U-4" vertex="1">
          <mxGeometry x="800" y="2560" width="115" height="50" as="geometry" />
        </mxCell>
        <mxCell id="T6p4OpV2aNtOesqytf9U-46" value="Manage Quiz and Study Progress" style="rounded=1;whiteSpace=wrap;html=1;fontSize=16;fontStyle=1;strokeWidth=3;" parent="T6p4OpV2aNtOesqytf9U-4" vertex="1">
          <mxGeometry x="932" y="2469" width="124" height="61" as="geometry" />
        </mxCell>
        <mxCell id="T6p4OpV2aNtOesqytf9U-47" value="" style="edgeStyle=orthogonalEdgeStyle;rounded=0;orthogonalLoop=1;jettySize=auto;html=1;fontSize=16;fontStyle=1;strokeWidth=3;" parent="T6p4OpV2aNtOesqytf9U-4" source="T6p4OpV2aNtOesqytf9U-48" target="T6p4OpV2aNtOesqytf9U-49" edge="1">
          <mxGeometry relative="1" as="geometry" />
        </mxCell>
        <mxCell id="T6p4OpV2aNtOesqytf9U-48" value="Add / Edit Quiz&amp;nbsp;" style="rounded=1;whiteSpace=wrap;html=1;fontSize=16;fontStyle=1;strokeWidth=3;" parent="T6p4OpV2aNtOesqytf9U-4" vertex="1">
          <mxGeometry x="935" y="2560" width="115" height="50" as="geometry" />
        </mxCell>
        <mxCell id="T6p4OpV2aNtOesqytf9U-49" value="View Quiz Score" style="rounded=1;whiteSpace=wrap;html=1;fontSize=16;fontStyle=1;strokeWidth=3;" parent="T6p4OpV2aNtOesqytf9U-4" vertex="1">
          <mxGeometry x="935" y="2650" width="115" height="50" as="geometry" />
        </mxCell>
        <mxCell id="T6p4OpV2aNtOesqytf9U-50" value="Generate Reports and logs" style="rounded=1;whiteSpace=wrap;html=1;fontSize=16;fontStyle=1;strokeWidth=3;" parent="T6p4OpV2aNtOesqytf9U-4" vertex="1">
          <mxGeometry x="1065" y="2470" width="140" height="59" as="geometry" />
        </mxCell>
        <mxCell id="T6p4OpV2aNtOesqytf9U-51" value="" style="edgeStyle=orthogonalEdgeStyle;rounded=0;orthogonalLoop=1;jettySize=auto;html=1;fontSize=16;fontStyle=1;strokeWidth=3;" parent="T6p4OpV2aNtOesqytf9U-4" source="T6p4OpV2aNtOesqytf9U-52" target="T6p4OpV2aNtOesqytf9U-53" edge="1">
          <mxGeometry relative="1" as="geometry" />
        </mxCell>
        <mxCell id="T6p4OpV2aNtOesqytf9U-52" value="Generate Usage Report" style="rounded=1;whiteSpace=wrap;html=1;fontSize=16;fontStyle=1;strokeWidth=3;" parent="T6p4OpV2aNtOesqytf9U-4" vertex="1">
          <mxGeometry x="1065" y="2560" width="115" height="50" as="geometry" />
        </mxCell>
        <mxCell id="T6p4OpV2aNtOesqytf9U-53" value="Check System Logs&amp;nbsp;" style="rounded=1;whiteSpace=wrap;html=1;fontSize=16;fontStyle=1;strokeWidth=3;" parent="T6p4OpV2aNtOesqytf9U-4" vertex="1">
          <mxGeometry x="1065" y="2650" width="115" height="50" as="geometry" />
        </mxCell>
        <mxCell id="T6p4OpV2aNtOesqytf9U-54" value="" style="endArrow=classic;html=1;rounded=0;exitX=0;exitY=0.5;exitDx=0;exitDy=0;entryX=0.386;entryY=-0.063;entryDx=0;entryDy=0;entryPerimeter=0;edgeStyle=orthogonalEdgeStyle;fontSize=16;fontStyle=1;strokeWidth=3;" parent="T6p4OpV2aNtOesqytf9U-4" source="T6p4OpV2aNtOesqytf9U-42" target="T6p4OpV2aNtOesqytf9U-44" edge="1">
          <mxGeometry width="50" height="50" relative="1" as="geometry">
            <mxPoint x="700" y="2450" as="sourcePoint" />
            <mxPoint x="750" y="2400" as="targetPoint" />
          </mxGeometry>
        </mxCell>
        <mxCell id="T6p4OpV2aNtOesqytf9U-55" value="" style="endArrow=classic;html=1;rounded=0;exitX=0.887;exitY=0.486;exitDx=0;exitDy=0;exitPerimeter=0;entryX=0.45;entryY=-0.024;entryDx=0;entryDy=0;entryPerimeter=0;edgeStyle=orthogonalEdgeStyle;fontSize=16;fontStyle=1;strokeWidth=3;" parent="T6p4OpV2aNtOesqytf9U-4" target="T6p4OpV2aNtOesqytf9U-50" edge="1">
          <mxGeometry width="50" height="50" relative="1" as="geometry">
            <mxPoint x="1016.7425000000003" y="2383.0199999999995" as="sourcePoint" />
            <mxPoint x="1116.6999999999998" y="2474.45" as="targetPoint" />
          </mxGeometry>
        </mxCell>
        <mxCell id="T6p4OpV2aNtOesqytf9U-56" value="" style="endArrow=classic;html=1;rounded=0;fontSize=16;fontStyle=1;strokeWidth=3;" parent="T6p4OpV2aNtOesqytf9U-4" edge="1">
          <mxGeometry width="50" height="50" relative="1" as="geometry">
            <mxPoint x="978.79" y="2419" as="sourcePoint" />
            <mxPoint x="979" y="2469" as="targetPoint" />
            <Array as="points">
              <mxPoint x="979" y="2449" />
            </Array>
          </mxGeometry>
        </mxCell>
        <mxCell id="T6p4OpV2aNtOesqytf9U-57" value="" style="endArrow=classic;html=1;rounded=0;fontSize=16;fontStyle=1;strokeWidth=3;" parent="T6p4OpV2aNtOesqytf9U-4" edge="1">
          <mxGeometry width="50" height="50" relative="1" as="geometry">
            <mxPoint x="988" y="2532" as="sourcePoint" />
            <mxPoint x="988" y="2559" as="targetPoint" />
            <Array as="points" />
          </mxGeometry>
        </mxCell>
        <mxCell id="T6p4OpV2aNtOesqytf9U-59" value="" style="endArrow=none;html=1;rounded=0;entryX=0.5;entryY=1;entryDx=0;entryDy=0;fontSize=16;fontStyle=1;strokeWidth=3;" parent="T6p4OpV2aNtOesqytf9U-4" edge="1">
          <mxGeometry width="50" height="50" relative="1" as="geometry">
            <mxPoint x="994" y="2730" as="sourcePoint" />
            <mxPoint x="993.5" y="2700" as="targetPoint" />
          </mxGeometry>
        </mxCell>
        <mxCell id="T6p4OpV2aNtOesqytf9U-60" value="" style="endArrow=none;html=1;rounded=0;entryX=0.5;entryY=1;entryDx=0;entryDy=0;fontSize=16;fontStyle=1;strokeWidth=3;" parent="T6p4OpV2aNtOesqytf9U-4" edge="1">
          <mxGeometry width="50" height="50" relative="1" as="geometry">
            <mxPoint x="1129" y="2730" as="sourcePoint" />
            <mxPoint x="1129" y="2702" as="targetPoint" />
          </mxGeometry>
        </mxCell>
        <mxCell id="T6p4OpV2aNtOesqytf9U-61" value="" style="endArrow=classic;html=1;rounded=0;exitX=0.387;exitY=1.073;exitDx=0;exitDy=0;exitPerimeter=0;fontSize=16;fontStyle=1;strokeWidth=3;" parent="T6p4OpV2aNtOesqytf9U-4" source="T6p4OpV2aNtOesqytf9U-40" edge="1">
          <mxGeometry width="50" height="50" relative="1" as="geometry">
            <mxPoint x="530" y="2250" as="sourcePoint" />
            <mxPoint x="70" y="2230" as="targetPoint" />
            <Array as="points">
              <mxPoint x="835" y="2230" />
            </Array>
          </mxGeometry>
        </mxCell>
        <mxCell id="T6p4OpV2aNtOesqytf9U-62" value="" style="endArrow=classic;html=1;rounded=0;edgeStyle=orthogonalEdgeStyle;exitX=0.345;exitY=0.96;exitDx=0;exitDy=0;exitPerimeter=0;fontSize=16;fontStyle=1;strokeWidth=3;" parent="T6p4OpV2aNtOesqytf9U-4" edge="1">
          <mxGeometry width="50" height="50" relative="1" as="geometry">
            <mxPoint x="714.2249999999999" y="1794.4" as="sourcePoint" />
            <mxPoint x="1807" y="1849" as="targetPoint" />
            <Array as="points">
              <mxPoint x="714" y="1825" />
              <mxPoint x="1807" y="1825" />
            </Array>
          </mxGeometry>
        </mxCell>
        <mxCell id="T6p4OpV2aNtOesqytf9U-63" value="" style="endArrow=classic;html=1;rounded=0;fontSize=16;fontStyle=1;strokeWidth=3;" parent="T6p4OpV2aNtOesqytf9U-4" edge="1">
          <mxGeometry width="50" height="50" relative="1" as="geometry">
            <mxPoint x="663" y="2730" as="sourcePoint" />
            <mxPoint x="962" y="2360" as="targetPoint" />
            <Array as="points">
              <mxPoint x="663" y="2360" />
            </Array>
          </mxGeometry>
        </mxCell>
        <mxCell id="T6p4OpV2aNtOesqytf9U-64" value="" style="endArrow=classic;html=1;rounded=0;exitX=1;exitY=0.5;exitDx=0;exitDy=0;edgeStyle=orthogonalEdgeStyle;fontSize=16;fontStyle=1;strokeWidth=3;" parent="T6p4OpV2aNtOesqytf9U-4" source="T6p4OpV2aNtOesqytf9U-10" edge="1">
          <mxGeometry width="50" height="50" relative="1" as="geometry">
            <mxPoint x="617.5" y="594.9999999999998" as="sourcePoint" />
            <mxPoint x="977.5294117647059" y="2230" as="targetPoint" />
          </mxGeometry>
        </mxCell>
        <mxCell id="T6p4OpV2aNtOesqytf9U-65" value="" style="endArrow=classic;html=1;rounded=0;edgeStyle=orthogonalEdgeStyle;fontSize=16;exitX=0.095;exitY=0.427;exitDx=0;exitDy=0;exitPerimeter=0;fontStyle=1;strokeWidth=3;" parent="T6p4OpV2aNtOesqytf9U-4" edge="1">
          <mxGeometry width="50" height="50" relative="1" as="geometry">
            <mxPoint x="545" y="933" as="sourcePoint" />
            <mxPoint x="388" y="991" as="targetPoint" />
            <Array as="points">
              <mxPoint x="389" y="935" />
              <mxPoint x="389" y="991" />
            </Array>
          </mxGeometry>
        </mxCell>
        <mxCell id="RjojUtqnH3HKZvirAnZO-1" value="" style="ellipse;html=1;shape=endState;fillColor=#000000;strokeColor=#ff0000;fontSize=16;fontStyle=1;strokeWidth=3;" parent="T6p4OpV2aNtOesqytf9U-4" vertex="1">
          <mxGeometry x="1361" y="2705" width="30" height="30" as="geometry" />
        </mxCell>
        <mxCell id="RjojUtqnH3HKZvirAnZO-2" value="" style="endArrow=classic;html=1;rounded=0;exitX=1;exitY=0;exitDx=0;exitDy=0;entryX=0.5;entryY=0;entryDx=0;entryDy=0;edgeStyle=orthogonalEdgeStyle;fontSize=16;fontStyle=1;strokeWidth=3;" parent="T6p4OpV2aNtOesqytf9U-4" source="T6p4OpV2aNtOesqytf9U-42" target="RjojUtqnH3HKZvirAnZO-1" edge="1">
          <mxGeometry width="50" height="50" relative="1" as="geometry">
            <mxPoint x="1282" y="2396" as="sourcePoint" />
            <mxPoint x="1332" y="2346" as="targetPoint" />
          </mxGeometry>
        </mxCell>
        <mxCell id="RjojUtqnH3HKZvirAnZO-4" value="" style="endArrow=classic;html=1;rounded=0;exitX=1;exitY=0;exitDx=0;exitDy=0;edgeStyle=orthogonalEdgeStyle;fontSize=16;fontStyle=1;strokeWidth=3;" parent="T6p4OpV2aNtOesqytf9U-4" edge="1">
          <mxGeometry width="50" height="50" relative="1" as="geometry">
            <mxPoint x="600" y="910.5" as="sourcePoint" />
            <mxPoint x="1370" y="2363" as="targetPoint" />
          </mxGeometry>
        </mxCell>
        <mxCell id="RjojUtqnH3HKZvirAnZO-6" value="&lt;font&gt;End&lt;/font&gt;" style="text;html=1;align=center;verticalAlign=middle;resizable=0;points=[];autosize=1;strokeColor=none;fillColor=none;fontSize=16;fontStyle=1;strokeWidth=3;" parent="T6p4OpV2aNtOesqytf9U-4" vertex="1">
          <mxGeometry x="1358" y="2744" width="46" height="31" as="geometry" />
        </mxCell>
        <mxCell id="2CUqEQ3qI_cIVyu0z2fX-1" value="Select Summary" style="rounded=1;whiteSpace=wrap;html=1;fontSize=16;fontStyle=1;strokeWidth=3;" parent="T6p4OpV2aNtOesqytf9U-4" vertex="1">
          <mxGeometry x="869" y="1042" width="95" height="40" as="geometry" />
        </mxCell>
        <mxCell id="2CUqEQ3qI_cIVyu0z2fX-2" value="" style="endArrow=classic;html=1;rounded=0;exitX=0.847;exitY=0.344;exitDx=0;exitDy=0;exitPerimeter=0;entryX=0.591;entryY=0.157;entryDx=0;entryDy=0;entryPerimeter=0;edgeStyle=orthogonalEdgeStyle;fontSize=16;fontStyle=1;strokeWidth=3;" parent="T6p4OpV2aNtOesqytf9U-4" edge="1">
          <mxGeometry width="50" height="50" relative="1" as="geometry">
            <mxPoint x="609.76" y="919.0800000000002" as="sourcePoint" />
            <mxPoint x="922.145" y="1043.2800000000002" as="targetPoint" />
            <Array as="points">
              <mxPoint x="922" y="919" />
            </Array>
          </mxGeometry>
        </mxCell>
        <mxCell id="T6p4OpV2aNtOesqytf9U-102" value="" style="endArrow=classic;html=1;rounded=0;fontSize=16;fontStyle=1;strokeWidth=3;" parent="T6p4OpV2aNtOesqytf9U-4" edge="1">
          <mxGeometry width="50" height="50" relative="1" as="geometry">
            <mxPoint x="69" y="2236" as="sourcePoint" />
            <mxPoint x="562" y="918" as="targetPoint" />
            <Array as="points">
              <mxPoint x="69" y="1601" />
              <mxPoint x="69" y="916" />
              <mxPoint x="309" y="916" />
              <mxPoint x="439" y="916" />
              <mxPoint x="509" y="916" />
            </Array>
          </mxGeometry>
        </mxCell>
        <mxCell id="T6p4OpV2aNtOesqytf9U-103" value="" style="endArrow=classic;html=1;rounded=0;exitX=0.5;exitY=1;exitDx=0;exitDy=0;fontSize=16;fontStyle=1;strokeWidth=3;" parent="T6p4OpV2aNtOesqytf9U-4" source="T6p4OpV2aNtOesqytf9U-41" target="T6p4OpV2aNtOesqytf9U-42" edge="1">
          <mxGeometry width="50" height="50" relative="1" as="geometry">
            <mxPoint x="977.5" y="2343" as="sourcePoint" />
            <mxPoint x="983" y="2354" as="targetPoint" />
          </mxGeometry>
        </mxCell>
        <mxCell id="Yt4iZT8hi6nhTZp4xm10-2" value="Menu" style="rhombus;whiteSpace=wrap;html=1;fontSize=16;fontStyle=1;strokeWidth=3;" parent="T6p4OpV2aNtOesqytf9U-4" vertex="1">
          <mxGeometry x="356" y="1065" width="66" height="59" as="geometry" />
        </mxCell>
        <mxCell id="Yt4iZT8hi6nhTZp4xm10-7" value="" style="endArrow=classic;html=1;rounded=0;fontSize=16;fontStyle=1;strokeWidth=3;" parent="T6p4OpV2aNtOesqytf9U-4" edge="1">
          <mxGeometry width="50" height="50" relative="1" as="geometry">
            <mxPoint x="389" y="1034" as="sourcePoint" />
            <mxPoint x="389.28999999999996" y="1064" as="targetPoint" />
          </mxGeometry>
        </mxCell>
        <mxCell id="Yt4iZT8hi6nhTZp4xm10-6" value="" style="endArrow=classic;html=1;rounded=0;fontSize=16;fontStyle=1;strokeWidth=3;exitX=0;exitY=0.5;exitDx=0;exitDy=0;entryX=0.472;entryY=0.657;entryDx=0;entryDy=0;entryPerimeter=0;" parent="T6p4OpV2aNtOesqytf9U-4" source="Yt4iZT8hi6nhTZp4xm10-2" target="T6p4OpV2aNtOesqytf9U-24" edge="1">
          <mxGeometry width="50" height="50" relative="1" as="geometry">
            <mxPoint x="323.78999999999996" y="1124" as="sourcePoint" />
            <mxPoint x="323.78999999999996" y="1165" as="targetPoint" />
            <Array as="points">
              <mxPoint x="319" y="1095" />
            </Array>
          </mxGeometry>
        </mxCell>
        <mxCell id="Yt4iZT8hi6nhTZp4xm10-10" value="" style="shape=line;html=1;strokeWidth=3;strokeColor=#ff0000;fontSize=16;fontStyle=1" parent="T6p4OpV2aNtOesqytf9U-4" vertex="1">
          <mxGeometry x="225" y="1267" width="197" height="10" as="geometry" />
        </mxCell>
        <mxCell id="Yt4iZT8hi6nhTZp4xm10-11" value="" style="endArrow=classic;html=1;rounded=0;exitX=0.177;exitY=1.033;exitDx=0;exitDy=0;exitPerimeter=0;fontSize=16;fontStyle=1;strokeWidth=3;" parent="T6p4OpV2aNtOesqytf9U-4" edge="1">
          <mxGeometry width="50" height="50" relative="1" as="geometry">
            <mxPoint x="270.39000000000004" y="1230" as="sourcePoint" />
            <mxPoint x="270.29" y="1267.67" as="targetPoint" />
          </mxGeometry>
        </mxCell>
        <mxCell id="Yt4iZT8hi6nhTZp4xm10-12" value="" style="endArrow=classic;html=1;rounded=0;exitX=0.177;exitY=1.033;exitDx=0;exitDy=0;exitPerimeter=0;fontSize=16;fontStyle=1;strokeWidth=3;" parent="T6p4OpV2aNtOesqytf9U-4" edge="1">
          <mxGeometry width="50" height="50" relative="1" as="geometry">
            <mxPoint x="375.89000000000004" y="1232" as="sourcePoint" />
            <mxPoint x="375.79" y="1269.67" as="targetPoint" />
          </mxGeometry>
        </mxCell>
        <mxCell id="T6p4OpV2aNtOesqytf9U-107" value="No" style="text;html=1;align=center;verticalAlign=middle;resizable=0;points=[];autosize=1;strokeColor=none;fillColor=none;fontSize=16;fontStyle=1;strokeWidth=3;" parent="T6p4OpV2aNtOesqytf9U-4" vertex="1">
          <mxGeometry x="684" y="599" width="38" height="31" as="geometry" />
        </mxCell>
        <mxCell id="T6p4OpV2aNtOesqytf9U-74" value="System Perspective&amp;nbsp;" style="swimlane;html=1;startSize=20;fontSize=16;fontStyle=1;strokeWidth=3;" parent="1" vertex="1">
          <mxGeometry x="1600" y="18" width="460" height="2921" as="geometry" />
        </mxCell>
        <mxCell id="T6p4OpV2aNtOesqytf9U-75" style="edgeStyle=none;rounded=0;html=1;labelBackgroundColor=none;startArrow=none;startFill=0;startSize=5;endArrow=classicThin;endFill=1;endSize=5;jettySize=auto;orthogonalLoop=1;strokeWidth=1;fontFamily=Verdana;fontSize=12" parent="T6p4OpV2aNtOesqytf9U-74" edge="1">
          <mxGeometry relative="1" as="geometry">
            <mxPoint x="125.5" y="480" as="sourcePoint" />
          </mxGeometry>
        </mxCell>
        <mxCell id="T6p4OpV2aNtOesqytf9U-76" style="edgeStyle=none;rounded=0;html=1;labelBackgroundColor=none;startArrow=none;startFill=0;startSize=5;endArrow=classicThin;endFill=1;endSize=5;jettySize=auto;orthogonalLoop=1;strokeWidth=1;fontFamily=Verdana;fontSize=12" parent="T6p4OpV2aNtOesqytf9U-74" edge="1">
          <mxGeometry relative="1" as="geometry">
            <mxPoint x="113.54999999999995" y="420" as="sourcePoint" />
          </mxGeometry>
        </mxCell>
        <mxCell id="T6p4OpV2aNtOesqytf9U-77" style="edgeStyle=orthogonalEdgeStyle;rounded=0;html=1;entryX=0.25;entryY=0;labelBackgroundColor=none;startArrow=none;startFill=0;startSize=5;endArrow=classicThin;endFill=1;endSize=5;jettySize=auto;orthogonalLoop=1;strokeWidth=1;fontFamily=Verdana;fontSize=12" parent="T6p4OpV2aNtOesqytf9U-74" edge="1">
          <mxGeometry relative="1" as="geometry">
            <mxPoint x="30" y="380" as="sourcePoint" />
          </mxGeometry>
        </mxCell>
        <mxCell id="T6p4OpV2aNtOesqytf9U-78" style="edgeStyle=none;rounded=0;html=1;labelBackgroundColor=none;startArrow=none;startFill=0;startSize=5;endArrow=classicThin;endFill=1;endSize=5;jettySize=auto;orthogonalLoop=1;strokeWidth=1;fontFamily=Verdana;fontSize=12" parent="T6p4OpV2aNtOesqytf9U-74" edge="1">
          <mxGeometry relative="1" as="geometry">
            <mxPoint x="154.6428571428571" y="540" as="sourcePoint" />
          </mxGeometry>
        </mxCell>
        <mxCell id="T6p4OpV2aNtOesqytf9U-79" style="edgeStyle=none;rounded=0;html=1;dashed=1;labelBackgroundColor=none;startArrow=none;startFill=0;startSize=5;endArrow=oval;endFill=0;endSize=5;jettySize=auto;orthogonalLoop=1;strokeWidth=1;fontFamily=Verdana;fontSize=12" parent="T6p4OpV2aNtOesqytf9U-74" edge="1">
          <mxGeometry relative="1" as="geometry">
            <mxPoint x="101.79310344827582" y="480" as="targetPoint" />
          </mxGeometry>
        </mxCell>
        <mxCell id="T6p4OpV2aNtOesqytf9U-80" style="edgeStyle=none;rounded=0;html=1;dashed=1;labelBackgroundColor=none;startArrow=none;startFill=0;startSize=5;endArrow=oval;endFill=0;endSize=5;jettySize=auto;orthogonalLoop=1;strokeWidth=1;fontFamily=Verdana;fontSize=12" parent="T6p4OpV2aNtOesqytf9U-74" edge="1">
          <mxGeometry relative="1" as="geometry">
            <mxPoint x="100" y="532.1428571428571" as="sourcePoint" />
          </mxGeometry>
        </mxCell>
        <mxCell id="T6p4OpV2aNtOesqytf9U-81" value="Receive Credentials" style="rounded=1;whiteSpace=wrap;html=1;fontSize=16;fontStyle=1;strokeWidth=3;" parent="T6p4OpV2aNtOesqytf9U-74" vertex="1">
          <mxGeometry x="185" y="220" width="115" height="50" as="geometry" />
        </mxCell>
        <mxCell id="T6p4OpV2aNtOesqytf9U-82" value="Check Authentication" style="rounded=1;whiteSpace=wrap;html=1;fontSize=16;fontStyle=1;strokeWidth=3;" parent="T6p4OpV2aNtOesqytf9U-74" vertex="1">
          <mxGeometry x="182.5" y="300" width="115" height="50" as="geometry" />
        </mxCell>
        <mxCell id="T6p4OpV2aNtOesqytf9U-83" value="&lt;div&gt;Valid Credentials&lt;/div&gt;" style="rhombus;whiteSpace=wrap;html=1;fontSize=16;fontStyle=1;strokeWidth=3;" parent="T6p4OpV2aNtOesqytf9U-74" vertex="1">
          <mxGeometry x="187" y="400" width="119" height="111" as="geometry" />
        </mxCell>
        <mxCell id="T6p4OpV2aNtOesqytf9U-84" value="Grant Access" style="rounded=1;whiteSpace=wrap;html=1;fontSize=16;fontStyle=1;strokeWidth=3;" parent="T6p4OpV2aNtOesqytf9U-74" vertex="1">
          <mxGeometry x="70" y="481" width="115" height="50" as="geometry" />
        </mxCell>
        <mxCell id="T6p4OpV2aNtOesqytf9U-85" value="Error" style="rounded=1;whiteSpace=wrap;html=1;fontSize=16;fontStyle=1;strokeWidth=3;" parent="T6p4OpV2aNtOesqytf9U-74" vertex="1">
          <mxGeometry x="330" y="480" width="115" height="50" as="geometry" />
        </mxCell>
        <mxCell id="T6p4OpV2aNtOesqytf9U-86" value="" style="endArrow=classic;html=1;rounded=0;exitX=0.436;exitY=0.976;exitDx=0;exitDy=0;exitPerimeter=0;entryX=0.5;entryY=0;entryDx=0;entryDy=0;fontSize=16;fontStyle=1;strokeWidth=3;" parent="T6p4OpV2aNtOesqytf9U-74" source="T6p4OpV2aNtOesqytf9U-81" edge="1">
          <mxGeometry width="50" height="50" relative="1" as="geometry">
            <mxPoint x="229.9950000000001" y="268.00000000000006" as="sourcePoint" />
            <mxPoint x="234.97" y="300" as="targetPoint" />
          </mxGeometry>
        </mxCell>
        <mxCell id="T6p4OpV2aNtOesqytf9U-87" value="" style="endArrow=classic;html=1;rounded=0;exitX=0.5;exitY=1;exitDx=0;exitDy=0;fontSize=16;entryX=0.5;entryY=0;entryDx=0;entryDy=0;fontStyle=1;strokeWidth=3;" parent="T6p4OpV2aNtOesqytf9U-74" target="T6p4OpV2aNtOesqytf9U-83" edge="1">
          <mxGeometry width="50" height="50" relative="1" as="geometry">
            <mxPoint x="244.5" y="350" as="sourcePoint" />
            <mxPoint x="246" y="396" as="targetPoint" />
          </mxGeometry>
        </mxCell>
        <mxCell id="T6p4OpV2aNtOesqytf9U-88" value="" style="endArrow=classic;html=1;rounded=0;exitX=0;exitY=0.5;exitDx=0;exitDy=0;entryX=0.435;entryY=0.02;entryDx=0;entryDy=0;entryPerimeter=0;edgeStyle=orthogonalEdgeStyle;fontSize=16;fontStyle=1;strokeWidth=3;" parent="T6p4OpV2aNtOesqytf9U-74" source="T6p4OpV2aNtOesqytf9U-83" target="T6p4OpV2aNtOesqytf9U-84" edge="1">
          <mxGeometry width="50" height="50" relative="1" as="geometry">
            <mxPoint x="60" y="490" as="sourcePoint" />
            <mxPoint x="110" y="440" as="targetPoint" />
          </mxGeometry>
        </mxCell>
        <mxCell id="T6p4OpV2aNtOesqytf9U-89" value="" style="endArrow=classic;html=1;rounded=0;exitX=1;exitY=0.5;exitDx=0;exitDy=0;entryX=0.5;entryY=0;entryDx=0;entryDy=0;edgeStyle=orthogonalEdgeStyle;fontSize=16;fontStyle=1;strokeWidth=3;" parent="T6p4OpV2aNtOesqytf9U-74" source="T6p4OpV2aNtOesqytf9U-83" target="T6p4OpV2aNtOesqytf9U-85" edge="1">
          <mxGeometry width="50" height="50" relative="1" as="geometry">
            <mxPoint x="310" y="460" as="sourcePoint" />
            <mxPoint x="360" y="410" as="targetPoint" />
          </mxGeometry>
        </mxCell>
        <mxCell id="T6p4OpV2aNtOesqytf9U-91" value="Verify Notes Access" style="rounded=1;whiteSpace=wrap;html=1;fontSize=16;fontStyle=1;strokeWidth=3;" parent="T6p4OpV2aNtOesqytf9U-74" vertex="1">
          <mxGeometry x="188.5" y="1364" width="115" height="50" as="geometry" />
        </mxCell>
        <mxCell id="T6p4OpV2aNtOesqytf9U-92" value="Provide Notes Data" style="rounded=1;whiteSpace=wrap;html=1;fontSize=16;fontStyle=1;strokeWidth=3;" parent="T6p4OpV2aNtOesqytf9U-74" vertex="1">
          <mxGeometry x="185" y="1480" width="115" height="50" as="geometry" />
        </mxCell>
        <mxCell id="T6p4OpV2aNtOesqytf9U-93" value="Store and Retrieve Discussion" style="rounded=1;whiteSpace=wrap;html=1;fontSize=16;fontStyle=1;strokeWidth=3;" parent="T6p4OpV2aNtOesqytf9U-74" vertex="1">
          <mxGeometry x="188.5" y="1555" width="115" height="57" as="geometry" />
        </mxCell>
        <mxCell id="T6p4OpV2aNtOesqytf9U-94" value="Fetch Study Data" style="rounded=1;whiteSpace=wrap;html=1;fontSize=16;fontStyle=1;strokeWidth=3;" parent="T6p4OpV2aNtOesqytf9U-74" vertex="1">
          <mxGeometry x="187.5" y="1955" width="115" height="50" as="geometry" />
        </mxCell>
        <mxCell id="T6p4OpV2aNtOesqytf9U-95" value="Generate Report" style="rounded=1;whiteSpace=wrap;html=1;fontSize=16;fontStyle=1;strokeWidth=3;" parent="T6p4OpV2aNtOesqytf9U-74" vertex="1">
          <mxGeometry x="187.5" y="2047" width="115" height="50" as="geometry" />
        </mxCell>
        <mxCell id="T6p4OpV2aNtOesqytf9U-96" value="Generate Quiz" style="rounded=1;whiteSpace=wrap;html=1;fontSize=16;fontStyle=1;strokeWidth=3;" parent="T6p4OpV2aNtOesqytf9U-74" vertex="1">
          <mxGeometry x="187.5" y="1660" width="115" height="50" as="geometry" />
        </mxCell>
        <mxCell id="T6p4OpV2aNtOesqytf9U-97" value="Store and Display Score" style="rounded=1;whiteSpace=wrap;html=1;fontSize=16;fontStyle=1;strokeWidth=3;" parent="T6p4OpV2aNtOesqytf9U-74" vertex="1">
          <mxGeometry x="183.5" y="1845" width="115" height="50" as="geometry" />
        </mxCell>
        <mxCell id="T6p4OpV2aNtOesqytf9U-98" value="" style="endArrow=classic;html=1;rounded=0;exitX=0.381;exitY=0.967;exitDx=0;exitDy=0;exitPerimeter=0;entryX=0.414;entryY=0.02;entryDx=0;entryDy=0;entryPerimeter=0;fontSize=16;fontStyle=1;strokeWidth=3;" parent="T6p4OpV2aNtOesqytf9U-74" edge="1">
          <mxGeometry width="50" height="50" relative="1" as="geometry">
            <mxPoint x="233.31500000000005" y="1412.35" as="sourcePoint" />
            <mxPoint x="233.61000000000058" y="1481.0000000000005" as="targetPoint" />
          </mxGeometry>
        </mxCell>
        <mxCell id="T6p4OpV2aNtOesqytf9U-100" value="" style="endArrow=classic;html=1;rounded=0;exitX=0.383;exitY=0.994;exitDx=0;exitDy=0;exitPerimeter=0;fontSize=16;fontStyle=1;strokeWidth=3;" parent="T6p4OpV2aNtOesqytf9U-74" edge="1">
          <mxGeometry width="50" height="50" relative="1" as="geometry">
            <mxPoint x="241.54499999999962" y="2005.7000000000003" as="sourcePoint" />
            <mxPoint x="242" y="2046" as="targetPoint" />
          </mxGeometry>
        </mxCell>
        <mxCell id="T6p4OpV2aNtOesqytf9U-101" value="" style="endArrow=classic;html=1;rounded=0;edgeStyle=orthogonalEdgeStyle;fontSize=16;fontStyle=1;strokeWidth=3;exitX=0.448;exitY=0.984;exitDx=0;exitDy=0;exitPerimeter=0;" parent="T6p4OpV2aNtOesqytf9U-74" source="T6p4OpV2aNtOesqytf9U-93" edge="1">
          <mxGeometry width="50" height="50" relative="1" as="geometry">
            <mxPoint x="240" y="1627" as="sourcePoint" />
            <mxPoint x="-1489" y="1633" as="targetPoint" />
            <Array as="points">
              <mxPoint x="240" y="1611" />
              <mxPoint x="240" y="1633" />
            </Array>
          </mxGeometry>
        </mxCell>
        <mxCell id="T6p4OpV2aNtOesqytf9U-109" style="edgeStyle=none;curved=1;rounded=0;orthogonalLoop=1;jettySize=auto;html=1;entryX=0.5;entryY=0;entryDx=0;entryDy=0;fontSize=16;startSize=8;endSize=8;fontStyle=1;strokeWidth=3;" parent="T6p4OpV2aNtOesqytf9U-74" source="T6p4OpV2aNtOesqytf9U-83" target="T6p4OpV2aNtOesqytf9U-83" edge="1">
          <mxGeometry relative="1" as="geometry" />
        </mxCell>
        <mxCell id="2CUqEQ3qI_cIVyu0z2fX-3" value="Generate Summary" style="rounded=1;whiteSpace=wrap;html=1;fontSize=16;fontStyle=1;strokeWidth=3;" parent="T6p4OpV2aNtOesqytf9U-74" vertex="1">
          <mxGeometry x="182.5" y="1749" width="115" height="50" as="geometry" />
        </mxCell>
        <mxCell id="T6p4OpV2aNtOesqytf9U-106" value="" style="endArrow=classic;html=1;rounded=0;edgeStyle=orthogonalEdgeStyle;fontSize=16;fontStyle=1;strokeWidth=3;" parent="1" edge="1">
          <mxGeometry width="50" height="50" relative="1" as="geometry">
            <mxPoint x="2000" y="557" as="sourcePoint" />
            <mxPoint x="185" y="220" as="targetPoint" />
            <Array as="points">
              <mxPoint x="2000" y="546" />
              <mxPoint x="2001" y="596" />
              <mxPoint x="1093" y="596" />
              <mxPoint x="1093" y="220" />
            </Array>
          </mxGeometry>
        </mxCell>
        <mxCell id="2CUqEQ3qI_cIVyu0z2fX-4" value="" style="endArrow=classic;html=1;rounded=0;exitX=0.5;exitY=1;exitDx=0;exitDy=0;entryX=0;entryY=0.5;entryDx=0;entryDy=0;edgeStyle=orthogonalEdgeStyle;fontSize=16;fontStyle=1;strokeWidth=3;" parent="1" source="2CUqEQ3qI_cIVyu0z2fX-1" target="2CUqEQ3qI_cIVyu0z2fX-3" edge="1">
          <mxGeometry width="50" height="50" relative="1" as="geometry">
            <mxPoint x="743" y="1169" as="sourcePoint" />
            <mxPoint x="1245" y="1769" as="targetPoint" />
          </mxGeometry>
        </mxCell>
        <mxCell id="Yaa47w4QSfL0EkUNV31V-4" value="" style="endArrow=classic;html=1;rounded=0;fontSize=16;fontStyle=1;strokeWidth=3;" parent="1" edge="1">
          <mxGeometry width="50" height="50" relative="1" as="geometry">
            <mxPoint x="1162" y="2548" as="sourcePoint" />
            <mxPoint x="1162" y="2575" as="targetPoint" />
            <Array as="points" />
          </mxGeometry>
        </mxCell>
        <mxCell id="Yt4iZT8hi6nhTZp4xm10-9" value="" style="endArrow=classic;html=1;rounded=0;exitX=0.177;exitY=1.033;exitDx=0;exitDy=0;exitPerimeter=0;fontSize=16;fontStyle=1;strokeWidth=3;" parent="1" edge="1">
          <mxGeometry width="50" height="50" relative="1" as="geometry">
            <mxPoint x="417.1" y="1166.33" as="sourcePoint" />
            <mxPoint x="417" y="1204" as="targetPoint" />
          </mxGeometry>
        </mxCell>
      </root>
    </mxGraphModel>
  </diagram>
</mxfile>
